<svg width="100%" viewBox="0 0 680 220" xmlns="http://www.w3.org/2000/svg">
<defs>
  <marker id="arrow" viewBox="0 0 10 10" refX="8" refY="5" markerWidth="6" markerHeight="6" orient="auto-start-reverse">
    <path d="M2 1L8 5L2 9" fill="none" stroke="context-stroke" stroke-width="1.5" stroke-linecap="round" stroke-linejoin="round"/>
  </marker>
</defs>

<style>
  .bg { fill: #0a0a0f; }
  .grid-line { stroke: #1a1a2e; stroke-width: 0.5; }
  .glow-blue { fill: #3b82f6; opacity: 0.08; }
  .glow-purple { fill: #8b5cf6; opacity: 0.06; }
  .title { font-family: monospace; font-size: 64px; font-weight: 700; fill: #f8fafc; letter-spacing: -2px; }
  .subtitle { font-family: monospace; font-size: 13px; fill: #64748b; letter-spacing: 2px; }
  .tag { font-family: monospace; font-size: 11px; fill: #3b82f6; }
  .tag-bg { fill: none; stroke: #3b82f6; stroke-width: 0.5; opacity: 0.5; }
  .dot { fill: #3b82f6; }
  .dot-purple { fill: #8b5cf6; }
  .dot-teal { fill: #14b8a6; }
  .line-blue { stroke: #3b82f6; stroke-width: 0.5; opacity: 0.4; fill: none; }
  .cursor { fill: #3b82f6; opacity: 0.9; }
  .cmd { font-family: monospace; font-size: 12px; fill: #94a3b8; }
  .cmd-green { font-family: monospace; font-size: 12px; fill: #34d399; }
</style>

<rect class="bg" width="680" height="220" rx="12"/>

<line class="grid-line" x1="0" y1="40" x2="680" y2="40"/>
<line class="grid-line" x1="0" y1="80" x2="680" y2="80"/>
<line class="grid-line" x1="0" y1="120" x2="680" y2="120"/>
<line class="grid-line" x1="0" y1="160" x2="680" y2="160"/>
<line class="grid-line" x1="0" y1="200" x2="680" y2="200"/>
<line class="grid-line" x1="80" y1="0" x2="80" y2="220"/>
<line class="grid-line" x1="160" y1="0" x2="160" y2="220"/>
<line class="grid-line" x1="240" y1="0" x2="240" y2="220"/>
<line class="grid-line" x1="320" y1="0" x2="320" y2="220"/>
<line class="grid-line" x1="400" y1="0" x2="400" y2="220"/>
<line class="grid-line" x1="480" y1="0" x2="480" y2="220"/>
<line class="grid-line" x1="560" y1="0" x2="560" y2="220"/>
<line class="grid-line" x1="640" y1="0" x2="640" y2="220"/>

<ellipse cx="180" cy="110" rx="160" ry="80" class="glow-blue"/>
<ellipse cx="540" cy="110" rx="140" ry="70" class="glow-purple"/>

<circle cx="60" cy="30" r="2" class="dot"/>
<circle cx="120" cy="50" r="1.5" class="dot-purple"/>
<circle cx="200" cy="20" r="1.5" class="dot-teal"/>
<circle cx="580" cy="25" r="2" class="dot-purple"/>
<circle cx="640" cy="45" r="1.5" class="dot"/>
<circle cx="620" cy="190" r="2" class="dot-teal"/>
<circle cx="50" cy="180" r="1.5" class="dot-purple"/>
<circle cx="90" cy="200" r="1.5" class="dot"/>

<path class="line-blue" d="M60 30 L120 50 L200 20"/>
<path class="line-blue" d="M580 25 L640 45"/>

<text x="44" y="132" class="title">Friday</text>
<rect x="44" y="148" width="300" height="1" fill="#1e293b"/>
<text x="44" y="168" class="subtitle">TERMINAL AI AGENT · BUILT IN C++</text>

<rect x="44" y="180" width="84" height="18" rx="3" class="tag-bg"/>
<text x="52" y="193" class="tag">OpenRouter</text>
<rect x="136" y="180" width="54" height="18" rx="3" fill="none" stroke="#8b5cf6" stroke-width="0.5" opacity="0.5"/>
<text x="144" y="193" class="tag" style="fill:#8b5cf6">Tool use</text>
<rect x="198" y="180" width="62" height="18" rx="3" fill="none" stroke="#14b8a6" stroke-width="0.5" opacity="0.5"/>
<text x="206" y="193" class="tag" style="fill:#14b8a6">Agentic</text>

<rect x="430" y="30" width="220" height="160" rx="6" fill="#0d1117" stroke="#1e293b" stroke-width="0.5"/>
<rect x="430" y="30" width="220" height="22" rx="6" fill="#161b22"/>
<rect x="430" y="41" width="220" height="11" fill="#161b22"/>
<circle cx="445" cy="41" r="4" fill="#ff5f57"/>
<circle cx="459" cy="41" r="4" fill="#febc2e"/>
<circle cx="473" cy="41" r="4" fill="#28c840"/>

<text x="444" y="68" class="cmd-green">$</text>
<text x="456" y="68" class="cmd">./friday -p </text>
<text x="456" y="84" class="cmd" style="fill:#f1f5f9">"fix the bug"</text>
<text x="444" y="104" class="cmd" style="fill:#475569">→ reading main.cpp</text>
<text x="444" y="120" class="cmd" style="fill:#475569">→ found null deref L42</text>
<text x="444" y="136" class="cmd" style="fill:#475569">→ writing fix...</text>
<text x="444" y="152" class="cmd-green">✓ done</text>
</svg>
